<svg version="1.1" id="Layer_1" xmlns="http://www.w3.org/2000/svg" xmlns:xlink="http://www.w3.org/1999/xlink" x="0px" y="0px"
	 width="128px" height="128px" viewBox="0 0 675 672" enable-background="new 0 0 675 672" xml:space="preserve">
<path fill="#FFFFFF" opacity="1.000000" stroke="none" 
	d="
M676.000000,258.000000 
	C676.000000,396.666656 676.000000,534.833313 676.000000,673.000000 
	C451.000031,673.000000 226.000092,673.000000 1.000098,673.000000 
	C1.000065,449.000061 1.000065,225.000137 1.000032,1.000158 
	C225.999893,1.000105 450.999786,1.000105 675.999878,1.000053 
	C676.000000,86.500000 676.000000,172.000000 676.000000,258.000000 
M384.086884,455.414948 
	C286.286194,362.873566 188.485489,270.332214 90.649139,177.757126 
	C89.823532,178.723099 89.568146,178.950912 89.400574,179.231216 
	C88.888268,180.088181 88.401184,180.960632 87.919258,181.835327 
	C50.406570,249.919861 37.936756,322.381805 50.867596,398.970245 
	C62.199608,466.088959 91.221596,524.618713 140.051437,572.281189 
	C203.468048,634.181763 279.705048,662.472229 368.305084,653.632324 
	C426.447754,647.831238 477.397156,624.147827 521.780823,586.259338 
	C522.596985,585.562561 523.223267,584.643555 523.260315,584.601318 
	C521.132019,583.517029 518.966553,582.954651 517.540283,581.608704 
	C473.183380,539.752197 428.898712,497.819214 384.086884,455.414948 
M411.521790,313.978729 
	C473.148254,372.306122 534.774719,430.633514 596.709167,489.252411 
	C597.804688,486.987213 598.621704,485.360748 599.385498,483.709625 
	C629.145203,419.371735 637.992676,352.278961 625.075195,282.572693 
	C612.142029,212.781677 581.003113,152.200226 527.513550,105.254745 
	C441.828552,30.052685 344.350830,10.998059 236.587814,50.245762 
	C213.194489,58.765713 191.810471,71.361496 171.373947,86.631180 
	C251.414566,162.407120 331.210144,237.951080 411.521790,313.978729 
M132.166138,51.340919 
	C116.315010,36.355896 100.463890,21.370872 84.499680,6.278940 
	C60.672100,36.783173 36.942307,67.162224 13.031246,97.773331 
	C40.141518,123.451759 66.923401,148.819138 93.807190,174.283051 
	C116.409042,142.472305 140.898560,113.057678 170.354294,87.562935 
	C157.756546,75.617714 145.214417,63.725235 132.166138,51.340919 
M565.502380,620.997009 
	C575.034729,630.019043 584.567139,639.041016 594.287537,648.240967 
	C618.285889,617.438538 641.981018,587.025330 665.758545,556.506348 
	C642.769958,534.748291 620.186584,513.373840 596.821472,491.259521 
	C575.344177,524.033386 552.593384,555.183105 524.820251,582.489380 
	C538.374573,595.320007 551.680908,607.915894 565.502380,620.997009 
z"/>
<path fill="#333333" opacity="1.000000" stroke="none" 
	d="
M384.344910,455.656433 
	C428.898712,497.819214 473.183380,539.752197 517.540283,581.608704 
	C518.966553,582.954651 521.132019,583.517029 523.260315,584.601318 
	C523.223267,584.643555 522.596985,585.562561 521.780823,586.259338 
	C477.397156,624.147827 426.447754,647.831238 368.305084,653.632324 
	C279.705048,662.472229 203.468048,634.181763 140.051437,572.281189 
	C91.221596,524.618713 62.199608,466.088959 50.867596,398.970245 
	C37.936756,322.381805 50.406570,249.919861 87.919258,181.835327 
	C88.401184,180.960632 88.888268,180.088181 89.400574,179.231216 
	C89.568146,178.950912 89.823532,178.723099 90.649139,177.757126 
	C188.485489,270.332214 286.286194,362.873566 384.344910,455.656433 
z"/>
<path fill="#333333" opacity="1.000000" stroke="none" 
	d="
M411.263763,313.736877 
	C331.210144,237.951080 251.414566,162.407120 171.373947,86.631180 
	C191.810471,71.361496 213.194489,58.765713 236.587814,50.245762 
	C344.350830,10.998059 441.828552,30.052685 527.513550,105.254745 
	C581.003113,152.200226 612.142029,212.781677 625.075195,282.572693 
	C637.992676,352.278961 629.145203,419.371735 599.385498,483.709625 
	C598.621704,485.360748 597.804688,486.987213 596.709167,489.252411 
	C534.774719,430.633514 473.148254,372.306122 411.263763,313.736877 
z"/>
<path fill="#333333" opacity="1.000000" stroke="none" 
	d="
M132.419220,51.586838 
	C145.214417,63.725235 157.756546,75.617714 170.354294,87.562935 
	C140.898560,113.057678 116.409042,142.472305 93.807190,174.283051 
	C66.923401,148.819138 40.141518,123.451759 13.031246,97.773331 
	C36.942307,67.162224 60.672100,36.783173 84.499680,6.278940 
	C100.463890,21.370872 116.315010,36.355896 132.419220,51.586838 
z"/>
<path fill="#333333" opacity="1.000000" stroke="none" 
	d="
M565.244812,620.754395 
	C551.680908,607.915894 538.374573,595.320007 524.820251,582.489380 
	C552.593384,555.183105 575.344177,524.033386 596.821472,491.259521 
	C620.186584,513.373840 642.769958,534.748291 665.758545,556.506348 
	C641.981018,587.025330 618.285889,617.438538 594.287537,648.240967 
	C584.567139,639.041016 575.034729,630.019043 565.244812,620.754395 
z"/>
</svg>